<svg xmlns="http://www.w3.org/2000/svg" viewBox="0 0 100 100" width="100" height="100">
    <!-- Grey Skyscrapers -->
    <rect x="10" y="45" width="16" height="45" fill="#888888" />
    <rect x="29" y="20" width="22" height="70" fill="#777777" />
    <rect x="54" y="35" width="18" height="55" fill="#666666" />
    <rect x="75" y="55" width="16" height="35" fill="#555555" />

    <!-- Lit Windows (Warm Yellow) -->
    <!-- Building 1 -->
    <rect x="14" y="52" width="3" height="4" fill="#F4D03F" />
    <rect x="14" y="64" width="3" height="4" fill="#F4D03F" />
    <rect x="20" y="75" width="3" height="4" fill="#F4D03F" />

    <!-- Building 2 -->
    <rect x="34" y="28" width="4" height="5" fill="#F4D03F" />
    <rect x="42" y="40" width="4" height="5" fill="#F4D03F" />
    <rect x="34" y="55" width="4" height="5" fill="#F4D03F" />
    <rect x="42" y="70" width="4" height="5" fill="#F4D03F" />

    <!-- Building 3 -->
    <rect x="58" y="42" width="4" height="5" fill="#F4D03F" />
    <rect x="65" y="60" width="4" height="5" fill="#F4D03F" />
    <rect x="58" y="78" width="4" height="5" fill="#F4D03F" />

    <!-- Building 4 -->
    <rect x="79" y="62" width="3" height="4" fill="#F4D03F" />
    <rect x="85" y="72" width="3" height="4" fill="#F4D03F" />
</svg>
